<svg xmlns="http://www.w3.org/2000/svg"
    xmlns:xlink="http://www.w3.org/1999/xlink" width="500" fill='currentColor' zoomAndPan="magnify" viewBox="0 0 375 374.999991" height="500" preserveAspectRatio="xMidYMid meet" version="1.2">
    <g id="f336e4bc73">
        <path style=" stroke:none;fill-rule:nonzero;fill:#000000;fill-opacity:1;" d="M 156.382812 192.433594 C 155.644531 79.609375 0 59.910156 0 59.910156 C 0 59.910156 12.675781 196.945312 156.382812 192.433594 Z M 156.382812 192.433594 "/>
        <path style=" stroke:none;fill-rule:nonzero;fill:#000000;fill-opacity:1;" d="M 182.457031 118.09375 C 222.242188 12.515625 375.074219 47.972656 375.074219 47.972656 C 375.074219 47.972656 315.695312 172.125 182.457031 118.09375 Z M 182.457031 118.09375 "/>
        <path style=" stroke:none;fill-rule:nonzero;fill:#000000;fill-opacity:1;" d="M 225.222656 104.121094 C 220.128906 105.828125 215.253906 108.019531 210.589844 110.6875 C 205.929688 113.355469 201.570312 116.449219 197.519531 119.976562 C 189.507812 127.09375 183.035156 135.410156 178.09375 144.921875 C 168.238281 163.894531 163.320312 185.425781 161.234375 207.21875 C 159.261719 229.257812 159.316406 251.289062 161.394531 273.320312 C 162.351562 284.359375 163.714844 295.378906 165.394531 306.328125 C 166.269531 311.796875 167.171875 317.257812 168.207031 322.671875 C 169.21875 328.011719 170.371094 333.640625 171.550781 338.496094 L 171.574219 338.589844 C 171.703125 339.15625 171.808594 339.726562 171.882812 340.300781 C 171.960938 340.878906 172.007812 341.457031 172.027344 342.035156 C 172.046875 342.617188 172.039062 343.195312 172 343.777344 C 171.964844 344.355469 171.898438 344.933594 171.804688 345.503906 C 171.710938 346.078125 171.589844 346.644531 171.441406 347.207031 C 171.292969 347.769531 171.117188 348.320312 170.914062 348.867188 C 170.710938 349.410156 170.484375 349.941406 170.230469 350.464844 C 169.972656 350.988281 169.695312 351.496094 169.390625 351.988281 C 169.085938 352.484375 168.757812 352.964844 168.40625 353.425781 C 168.054688 353.886719 167.683594 354.332031 167.289062 354.757812 C 166.894531 355.183594 166.480469 355.589844 166.042969 355.976562 C 165.609375 356.363281 165.160156 356.726562 164.6875 357.066406 C 164.21875 357.410156 163.734375 357.726562 163.234375 358.023438 C 162.730469 358.316406 162.21875 358.585938 161.691406 358.828125 C 161.164062 359.074219 160.625 359.292969 160.078125 359.484375 C 159.53125 359.675781 158.972656 359.839844 158.410156 359.976562 C 157.84375 360.113281 157.273438 360.222656 156.699219 360.304688 C 156.125 360.386719 155.546875 360.441406 154.96875 360.464844 C 154.386719 360.488281 153.808594 360.488281 153.226562 360.457031 C 152.648438 360.425781 152.070312 360.363281 151.496094 360.277344 C 150.921875 360.1875 150.351562 360.074219 149.789062 359.929688 C 149.226562 359.785156 148.671875 359.617188 148.125 359.417969 C 147.582031 359.222656 147.046875 359 146.519531 358.75 C 145.996094 358.5 145.484375 358.222656 144.988281 357.925781 C 144.492188 357.625 144.007812 357.300781 143.542969 356.957031 C 143.078125 356.609375 142.628906 356.242188 142.199219 355.851562 C 141.769531 355.460938 141.359375 355.050781 140.96875 354.617188 C 140.578125 354.1875 140.210938 353.738281 139.863281 353.273438 C 139.515625 352.808594 139.195312 352.324219 138.894531 351.828125 C 138.597656 351.328125 138.324219 350.820312 138.074219 350.292969 C 137.824219 349.769531 137.601562 349.234375 137.402344 348.6875 C 137.207031 348.140625 137.035156 347.585938 136.894531 347.023438 C 136.757812 346.453125 136.644531 345.855469 136.5625 345.289062 C 135.667969 338.921875 135.097656 333.261719 134.558594 327.304688 C 134.015625 321.414062 133.625 315.539062 133.273438 309.660156 C 132.632812 297.90625 132.332031 286.152344 132.46875 274.378906 C 132.558594 250.675781 134.8125 227.179688 139.230469 203.894531 C 143.800781 180.648438 151.425781 157.363281 164.769531 136.894531 C 171.535156 126.519531 179.925781 117.6875 189.945312 110.40625 C 194.894531 106.875 200.144531 103.859375 205.691406 101.363281 C 211.238281 98.863281 216.972656 96.933594 222.902344 95.566406 C 223.453125 95.4375 224.011719 95.417969 224.570312 95.5 C 225.132812 95.585938 225.65625 95.773438 226.144531 96.058594 C 226.632812 96.347656 227.054688 96.714844 227.402344 97.160156 C 227.75 97.609375 228.003906 98.105469 228.160156 98.648438 C 228.320312 99.191406 228.371094 99.746094 228.316406 100.3125 C 228.261719 100.875 228.105469 101.410156 227.847656 101.914062 C 227.585938 102.417969 227.242188 102.855469 226.816406 103.230469 C 226.386719 103.601562 225.90625 103.882812 225.371094 104.070312 Z M 225.222656 104.121094 "/>
    </g>
</svg>