<svg xmlns="http://www.w3.org/2000/svg" xmlns:xlink="http://www.w3.org/1999/xlink" width="500" zoomAndPan="magnify" viewBox="0 0 375 374.999991" height="500" preserveAspectRatio="xMidYMid meet" version="1.2"><g id="4add793b9f"><path style=" stroke:none;fill-rule:nonzero;fill:#000000;fill-opacity:1;" d="M 187.28125 77.570312 C 129.277344 77.570312 82.089844 124.804688 82.089844 182.871094 C 82.089844 214.476562 96.09375 244.125 120.503906 264.230469 C 121.128906 264.746094 121.699219 265.300781 122.226562 265.917969 L 122.226562 285.523438 C 122.226562 295.070312 127.003906 303.511719 134.28125 308.613281 C 131.425781 312.019531 129.695312 316.402344 129.695312 321.183594 C 129.695312 331.980469 138.472656 340.765625 149.253906 340.765625 L 151.753906 340.765625 C 150.800781 343.070312 150.265625 345.589844 150.265625 348.242188 C 150.265625 359.035156 159.042969 367.820312 169.824219 367.820312 L 208.234375 367.820312 C 219.019531 367.820312 227.796875 359.035156 227.796875 348.242188 C 227.796875 345.519531 227.234375 342.925781 226.226562 340.570312 C 235.78125 339.285156 243.175781 331.09375 243.175781 321.1875 C 243.175781 316.675781 241.625 312.523438 239.054688 309.210938 C 246.828125 304.1875 252 295.460938 252 285.53125 L 252 266.339844 C 252.617188 265.558594 253.296875 264.863281 254.058594 264.238281 C 278.472656 244.140625 292.472656 214.484375 292.472656 182.878906 C 292.472656 124.804688 245.289062 77.570312 187.28125 77.570312 Z M 208.234375 355.710938 L 169.824219 355.710938 C 165.710938 355.710938 162.355469 352.355469 162.355469 348.234375 C 162.355469 344.113281 165.707031 340.753906 169.824219 340.753906 L 208.234375 340.753906 C 212.351562 340.753906 215.703125 344.109375 215.703125 348.234375 C 215.703125 352.355469 212.351562 355.710938 208.234375 355.710938 Z M 223.621094 328.65625 L 149.253906 328.65625 C 145.140625 328.65625 141.789062 325.304688 141.789062 321.179688 C 141.789062 317.058594 145.140625 313.707031 149.253906 313.707031 L 223.621094 313.707031 C 227.734375 313.707031 231.085938 317.058594 231.085938 321.183594 C 231.085938 325.308594 227.734375 328.65625 223.621094 328.65625 Z M 168.089844 215.746094 L 161.242188 215.746094 C 157.464844 215.746094 154.390625 212.675781 154.390625 208.894531 C 154.390625 205.113281 157.460938 202.039062 161.242188 202.039062 C 165.015625 202.039062 168.089844 205.113281 168.089844 208.894531 Z M 199.769531 301.597656 L 180.179688 301.597656 L 180.179688 227.851562 L 200.042969 227.847656 Z M 246.375 254.878906 C 244.230469 256.644531 242.363281 258.773438 240.835938 261.199219 L 239.902344 262.679688 L 239.902344 285.519531 C 239.902344 294.382812 232.699219 301.597656 223.847656 301.597656 L 211.859375 301.597656 L 212.136719 227.84375 L 219.195312 227.84375 C 229.5625 227.84375 238 219.339844 238 208.894531 C 238 198.4375 229.503906 189.933594 219.058594 189.933594 C 208.613281 189.933594 200.117188 198.4375 200.117188 208.867188 L 200.089844 215.738281 L 180.179688 215.742188 L 180.179688 208.894531 C 180.179688 198.4375 171.679688 189.933594 161.238281 189.933594 C 150.792969 189.933594 142.296875 198.4375 142.296875 208.894531 C 142.296875 219.347656 150.792969 227.855469 161.238281 227.855469 L 168.082031 227.855469 L 168.082031 301.601562 L 150.378906 301.601562 C 141.523438 301.601562 134.320312 294.390625 134.320312 285.523438 L 134.320312 262.054688 L 133.292969 260.523438 C 131.859375 258.382812 130.140625 256.484375 128.191406 254.878906 C 106.582031 237.085938 94.1875 210.839844 94.1875 182.871094 C 94.1875 131.484375 135.949219 89.675781 187.285156 89.675781 C 238.621094 89.675781 280.382812 131.484375 280.382812 182.871094 C 280.378906 210.839844 267.988281 237.085938 246.375 254.878906 Z M 212.1875 215.738281 L 212.210938 208.894531 C 212.210938 205.113281 215.28125 202.039062 219.058594 202.039062 C 222.835938 202.039062 225.910156 205.113281 225.910156 208.894531 C 225.910156 212.730469 222.960938 215.738281 219.195312 215.738281 Z M 91.347656 41.402344 C 89.675781 38.507812 90.667969 34.808594 93.558594 33.136719 C 96.445312 31.464844 100.148438 32.457031 101.816406 35.351562 L 119.761719 66.46875 C 121.429688 69.363281 120.441406 73.066406 117.546875 74.734375 C 116.59375 75.285156 115.558594 75.546875 114.53125 75.546875 C 112.4375 75.546875 110.40625 74.460938 109.285156 72.519531 Z M 66.503906 125.832031 C 65.382812 127.777344 63.347656 128.859375 61.257812 128.859375 C 60.230469 128.859375 59.195312 128.597656 58.242188 128.046875 L 27.15625 110.085938 C 24.265625 108.414062 23.269531 104.714844 24.945312 101.820312 C 26.613281 98.917969 30.308594 97.925781 33.203125 99.605469 L 64.285156 117.566406 C 67.183594 119.238281 68.171875 122.9375 66.503906 125.832031 Z M 41.773438 201.691406 L 5.878906 201.691406 C 2.539062 201.691406 -0.164062 198.984375 -0.164062 195.640625 C -0.164062 192.296875 2.539062 189.589844 5.878906 189.589844 L 41.773438 189.589844 C 45.113281 189.589844 47.816406 192.296875 47.816406 195.640625 C 47.816406 198.984375 45.113281 201.691406 41.773438 201.691406 Z M 66.503906 265.441406 C 68.171875 268.335938 67.183594 272.039062 64.289062 273.707031 L 33.207031 291.671875 C 32.25 292.222656 31.214844 292.480469 30.1875 292.480469 C 28.097656 292.480469 26.0625 291.398438 24.945312 289.457031 C 23.273438 286.5625 24.265625 282.859375 27.15625 281.191406 L 58.242188 263.226562 C 61.132812 261.554688 64.832031 262.546875 66.503906 265.441406 Z M 349.617188 289.460938 C 348.496094 291.40625 346.464844 292.488281 344.371094 292.488281 C 343.347656 292.488281 342.308594 292.226562 341.355469 291.675781 L 310.269531 273.714844 C 307.378906 272.042969 306.386719 268.339844 308.058594 265.445312 C 309.726562 262.550781 313.425781 261.558594 316.316406 263.230469 L 347.398438 281.195312 C 350.296875 282.859375 351.289062 286.566406 349.617188 289.460938 Z M 374.730469 195.640625 C 374.730469 198.984375 372.023438 201.691406 368.683594 201.691406 L 332.796875 201.691406 C 329.457031 201.691406 326.75 198.984375 326.75 195.640625 C 326.75 192.296875 329.457031 189.589844 332.796875 189.589844 L 368.683594 189.589844 C 372.023438 189.585938 374.730469 192.296875 374.730469 195.640625 Z M 308.0625 125.832031 C 306.394531 122.9375 307.382812 119.238281 310.273438 117.566406 L 341.359375 99.605469 C 344.25 97.925781 347.949219 98.917969 349.617188 101.820312 C 351.285156 104.714844 350.296875 108.414062 347.402344 110.085938 L 316.320312 128.046875 C 315.367188 128.597656 314.328125 128.859375 313.300781 128.859375 C 311.214844 128.859375 309.179688 127.773438 308.0625 125.832031 Z M 254.800781 66.464844 L 272.742188 35.347656 C 274.410156 32.453125 278.109375 31.453125 281 33.132812 C 283.894531 34.804688 284.886719 38.503906 283.214844 41.398438 L 265.269531 72.515625 C 264.152344 74.460938 262.117188 75.542969 260.027344 75.542969 C 259.003906 75.542969 257.960938 75.28125 257.007812 74.730469 C 254.121094 73.0625 253.132812 69.359375 254.800781 66.464844 Z M 181.238281 49.976562 L 181.238281 14.050781 C 181.238281 10.707031 183.941406 7.996094 187.28125 7.996094 C 190.621094 7.996094 193.328125 10.707031 193.328125 14.050781 L 193.328125 49.980469 C 193.328125 53.324219 190.621094 56.03125 187.28125 56.03125 C 183.941406 56.03125 181.238281 53.320312 181.238281 49.976562 Z M 181.238281 49.976562 "/></g></svg>