<svg xmlns="http://www.w3.org/2000/svg" xmlns:xlink="http://www.w3.org/1999/xlink" width="500" zoomAndPan="magnify" viewBox="0 0 375 374.999991" height="500" preserveAspectRatio="xMidYMid meet" version="1.2"><g id="5e864ec98c"><path style=" stroke:none;fill-rule:nonzero;fill:#231f20;fill-opacity:1;" d="M 362.964844 192.585938 C 356.28125 162.953125 340.214844 138.734375 316.796875 119.429688 C 307.457031 111.71875 297.164062 105.445312 286.0625 100.578125 C 285.25 100.21875 284.621094 99.722656 283.722656 100.671875 C 280.378906 104.320312 276.816406 107.746094 273.066406 111 C 273.296875 111.179688 273.378906 111.316406 273.476562 111.359375 C 274.105469 111.632812 274.738281 111.894531 275.371094 112.167969 C 286.738281 116.773438 297.4375 122.675781 306.78125 130.664062 C 345.136719 163.5 359.886719 204.996094 348.476562 254.113281 C 333.761719 317.210938 272.03125 356.136719 210.386719 345.402344 C 187.550781 341.386719 167.789062 331.238281 150.867188 315.589844 C 130.691406 297.003906 117.878906 274.042969 111.015625 247.664062 C 110.835938 246.894531 110.613281 246.125 110.4375 245.3125 C 109.710938 242.332031 109.078125 239.410156 108.675781 236.429688 C 108.632812 236.25 108.582031 236.070312 108.582031 235.839844 C 105.195312 215.683594 104.742188 192.679688 104.742188 192.679688 C 104.617188 192.414062 104.523438 192.140625 104.878906 191.960938 C 105.195312 186.957031 106.101562 182.035156 108.128906 177.429688 C 112.324219 168.007812 118.332031 159.894531 125.820312 152.8125 C 129.929688 148.925781 134.664062 146.585938 140.167969 145.457031 C 149.109375 143.648438 158.175781 142.84375 167.15625 141.484375 C 187.960938 138.472656 208.042969 132.824219 227.402344 124.753906 C 248.433594 116.003906 265.757812 102.203125 280.0625 84.570312 C 291.386719 70.628906 300.234375 55.246094 306.328125 38.332031 C 307.003906 36.445312 306.730469 35.632812 304.652344 35.042969 C 296.214844 32.746094 287.6875 31.027344 279.019531 29.945312 C 264.988281 28.183594 250.996094 28.277344 237.007812 30.175781 C 221.71875 32.25 207.230469 36.847656 193.199219 43.253906 C 168.78125 54.527344 150.195312 71.621094 139.175781 96.476562 C 133.628906 108.964844 130.152344 122.09375 125.957031 135.035156 C 125.820312 135.351562 125.597656 135.761719 126.050781 136.078125 L 126 135.984375 C 134.9375 124.53125 144.59375 113.707031 155.382812 103.960938 C 173.746094 87.320312 194.097656 74.011719 217.878906 66.394531 C 221.804688 65.128906 225.777344 63.957031 230.015625 63.507812 C 176.457031 88.449219 134.261719 126.109375 103.171875 175.765625 C 103.171875 175.808594 103.121094 175.355469 103.214844 174.910156 C 105.425781 160.390625 104.835938 145.996094 101.992188 131.652344 C 97.660156 110.007812 88.453125 90.472656 75.910156 72.433594 C 70.855469 65.171875 65.355469 58.269531 59.578125 51.554688 C 62.242188 52.367188 64.269531 54.253906 66.25 56.015625 C 90.847656 77.890625 102.804688 106.035156 107.273438 137.964844 C 107.949219 143.023438 108.128906 148.070312 108.675781 153.171875 C 112.511719 144.414062 116.203125 135.625 119.007812 126.511719 C 123.246094 112.527344 124.785156 98.324219 121.582031 83.84375 C 117.835938 66.792969 109.171875 52.273438 97.394531 39.734375 C 71.761719 12.398438 39.269531 3.25 2.800781 5.054688 C 1.496094 5.09375 0.957031 5.589844 0.820312 7.078125 C 0.1875 15.78125 0.683594 24.402344 1.726562 33.011719 C 3.75 49.113281 8.085938 64.496094 15.84375 78.796875 C 29.433594 103.78125 48.882812 123.667969 71.667969 140.453125 C 77.898438 145.003906 84.574219 149.019531 90.941406 153.4375 C 94.367188 155.828125 96.847656 159.03125 97.617188 163.363281 C 98.292969 167.0625 98.113281 170.800781 97.34375 174.457031 C 95.589844 182.941406 94.144531 191.414062 93.554688 200.074219 C 92.882812 210.042969 92.96875 219.96875 93.515625 229.929688 C 94.09375 241.394531 95.675781 252.710938 98.921875 263.765625 C 118.238281 329.890625 184.257812 371.515625 252.21875 360.28125 C 279.074219 355.863281 302.984375 344.8125 322.703125 325.960938 C 361.066406 289.160156 374.648438 244.410156 362.964844 192.585938 "/><path style=" stroke:none;fill-rule:nonzero;fill:#231f20;fill-opacity:1;" d="M 290.628906 219.832031 L 239.1875 219.054688 C 239.972656 212.113281 240.75 205.167969 241.546875 198.222656 C 242.503906 189.859375 243.453125 181.503906 244.417969 173.152344 C 245.367188 164.925781 246.339844 156.707031 247.339844 148.0625 C 246.777344 148.832031 246.433594 149.269531 246.125 149.730469 C 235.375 166.25 224.613281 182.769531 213.882812 199.289062 C 209.445312 206.105469 205.035156 212.941406 200.617188 219.765625 C 200.566406 219.832031 200.523438 219.910156 200.488281 219.988281 C 200.34375 220.15625 200.171875 220.320312 200.054688 220.507812 C 194.113281 229.621094 188.171875 238.746094 182.242188 247.867188 C 181.378906 249.191406 180.523438 250.535156 179.542969 252.0625 L 229.375 252.0625 C 230.085938 252.097656 230.792969 252.132812 231.511719 252.164062 C 228.820312 275.433594 226.128906 298.703125 223.4375 321.980469 L 290.628906 219.832031 "/></g></svg>