<svg xmlns="http://www.w3.org/2000/svg" xmlns:xlink="http://www.w3.org/1999/xlink" width="500" zoomAndPan="magnify" viewBox="0 0 375 374.999991" height="500" preserveAspectRatio="xMidYMid meet" version="1.2"><defs><clipPath id="24db60ad43"><path d="M 45.140625 186 L 134 186 L 134 298 L 45.140625 298 Z M 45.140625 186 "/></clipPath><clipPath id="c295c61a03"><path d="M 272 114 L 330.140625 114 L 330.140625 189 L 272 189 Z M 272 114 "/></clipPath></defs><g id="6e5f43d058"><path style=" stroke:none;fill-rule:nonzero;fill:#000000;fill-opacity:1;" d="M 257.023438 101.855469 C 240.4375 105.363281 226.539062 112.539062 215.234375 124.125 C 197.703125 142.09375 186.332031 163.492188 180.730469 187.933594 C 179.6875 192.484375 178.945312 197.105469 177.96875 202.1875 C 167.761719 155.644531 149.535156 116.113281 97.589844 100.988281 C 114.425781 97.820312 127.699219 90.742188 138.8125 79.804688 C 157.535156 61.378906 169.222656 39.105469 174.871094 13.574219 C 175.804688 9.347656 176.511719 5.066406 177.484375 -0.0117188 C 187.042969 47.179688 205.820312 86.148438 257.023438 101.855469 Z M 257.023438 101.855469 "/><path style=" stroke:none;fill-rule:nonzero;fill:#000000;fill-opacity:1;" d="M 178.59375 270.65625 C 215.914062 259.269531 229.625 230.390625 237.933594 195.730469 C 239.203125 199.046875 240.140625 201.148438 240.808594 203.335938 C 241.589844 205.894531 242.046875 208.554688 242.789062 211.125 C 249.027344 232.722656 259.597656 251.308594 279.773438 262.902344 C 284.972656 265.890625 290.628906 268.089844 296.605469 270.902344 C 260.875 282.808594 246.6875 311.273438 238.207031 345.910156 C 229.691406 311.59375 215.695312 282.75 178.59375 270.65625 Z M 178.59375 270.65625 "/><g clip-rule="nonzero" clip-path="url(#24db60ad43)"><path style=" stroke:none;fill-rule:nonzero;fill:#000000;fill-opacity:1;" d="M 88.277344 297.335938 C 81.507812 271.648438 73.46875 255.117188 45.144531 242.679688 C 71.859375 232.613281 81.484375 213.550781 89.222656 186.910156 C 96.070312 212.164062 106.355469 233.542969 133.859375 242.355469 C 121.433594 247.71875 110.40625 253.636719 104.085938 264.496094 C 97.921875 275.101562 93.347656 286.628906 88.277344 297.335938 Z M 88.277344 297.335938 "/></g><g clip-rule="nonzero" clip-path="url(#c295c61a03)"><path style=" stroke:none;fill-rule:nonzero;fill:#000000;fill-opacity:1;" d="M 272.730469 150.929688 C 288.347656 144.851562 295.003906 131.109375 300.640625 114.777344 C 305.292969 131.675781 312.382812 144.875 330.121094 151.605469 C 313.03125 158.667969 305.042969 171.382812 301.125 188.226562 C 297.199219 180.410156 294.609375 172.832031 290.007812 166.785156 C 285.488281 160.847656 278.921875 156.460938 272.730469 150.929688 Z M 272.730469 150.929688 "/></g><path style=" stroke:none;fill-rule:nonzero;fill:#000000;fill-opacity:1;" d="M 174.886719 344.894531 C 159.4375 350.523438 154.429688 361.929688 149.625 374.988281 C 145.554688 361.226562 139.632812 350.6875 125.886719 345.117188 C 138.832031 339.179688 145.296875 329.058594 149.867188 314.941406 C 154.351562 328.429688 159.960938 338.96875 174.886719 344.894531 Z M 174.886719 344.894531 "/></g></svg>