<svg xmlns="http://www.w3.org/2000/svg" xmlns:xlink="http://www.w3.org/1999/xlink" width="500" zoomAndPan="magnify" viewBox="0 0 375 374.999991" height="500" preserveAspectRatio="xMidYMid meet" version="1.2"><defs><clipPath id="22d7970339"><path d="M 168 3.847656 L 373 3.847656 L 373 371.347656 L 168 371.347656 Z M 168 3.847656 "/></clipPath><clipPath id="606650f89e"><path d="M 1 26 L 157 26 L 157 305 L 1 305 Z M 1 26 "/></clipPath><clipPath id="f0c5832f47"><path d="M 38.035156 26.210938 C 34.519531 43.882812 43.351562 62.105469 56.066406 74.828125 C 68.78125 87.546875 85.046875 96.015625 100.585938 105.109375 C 116.121094 114.203125 131.621094 124.539062 141.402344 139.683594 C 149.90625 152.84375 153.347656 168.609375 155.144531 184.1875 C 157.308594 203.035156 157.015625 222.867188 151.003906 240.648438 C 146.644531 229.945312 140.964844 219.679688 134.480469 210.109375 C 121.765625 191.265625 106.117188 174.621094 90.542969 158.085938 C 72.332031 138.765625 54.160156 119.445312 35.949219 100.125 C 54.78125 135.464844 83.984375 163.914062 108.683594 195.480469 C 133.378906 227.011719 154.414062 264.664062 152.105469 304.660156 C 150.273438 284.203125 133.671875 267.960938 115.679688 258.0625 C 97.691406 248.164062 77.5 242.664062 59.730469 232.328125 C 26.164062 212.675781 3.59375 175.425781 1.835938 136.601562 C 0.0742188 97.335938 17.992188 60.015625 38.035156 26.210938 Z M 38.035156 26.210938 "/></clipPath><linearGradient x1="-1204.20996" gradientTransform="matrix(-0.366421,0,0,0.36662,-362.204607,3.84897)" y1="61.000007" x2="-1204.20996" gradientUnits="userSpaceOnUse" y2="820.500039" id="61e7bc12a5"><stop style="stop-color:#88bf42;stop-opacity:1;" offset="0"/><stop style="stop-color:#88bf42;stop-opacity:1;" offset="0.125"/><stop style="stop-color:#88be42;stop-opacity:1;" offset="0.25"/><stop style="stop-color:#87be42;stop-opacity:1;" offset="0.375"/><stop style="stop-color:#87bd42;stop-opacity:1;" offset="0.5"/><stop style="stop-color:#86bd42;stop-opacity:1;" offset="0.625"/><stop style="stop-color:#86bc41;stop-opacity:1;" offset="0.75"/><stop style="stop-color:#85bb41;stop-opacity:1;" offset="0.875"/><stop style="stop-color:#85bb41;stop-opacity:1;" offset="1"/></linearGradient></defs><g id="ac72e2c77a"><g clip-rule="nonzero" clip-path="url(#22d7970339)"><path style=" stroke:none;fill-rule:nonzero;fill:#006838;fill-opacity:1;" d="M 324.796875 3.847656 C 329.453125 27.164062 317.800781 51.214844 301.015625 68.007812 C 284.234375 84.835938 262.761719 95.980469 242.28125 107.96875 C 221.761719 119.957031 201.277344 133.632812 188.417969 153.613281 C 177.203125 170.992188 172.625 191.816406 170.277344 212.347656 C 167.347656 237.277344 167.75 263.414062 175.664062 286.878906 C 181.417969 272.726562 188.929688 259.199219 197.464844 246.550781 C 214.25 221.65625 234.914062 199.699219 255.472656 177.847656 C 279.507812 152.332031 303.507812 126.851562 327.546875 101.332031 C 302.667969 147.96875 264.117188 185.582031 231.542969 227.195312 C 198.96875 268.84375 171.195312 318.554688 174.234375 371.347656 C 176.652344 344.328125 198.566406 322.882812 222.347656 309.832031 C 246.128906 296.777344 272.765625 289.484375 296.179688 275.84375 C 340.480469 250.035156 370.269531 200.832031 372.578125 149.582031 C 374.925781 97.742188 351.289062 48.429688 324.796875 3.847656 Z M 324.796875 3.847656 "/></g><g clip-rule="nonzero" clip-path="url(#606650f89e)"><g clip-rule="nonzero" clip-path="url(#f0c5832f47)"><path style=" stroke:none;fill-rule:nonzero;fill:url(#61e7bc12a5);" d="M 157.308594 26.210938 L 157.308594 304.660156 L 0.0742188 304.660156 L 0.0742188 26.210938 Z M 157.308594 26.210938 "/></g></g></g></svg>